<?xml version="1.0" encoding="utf-8"?>
<!-- Generator: Adobe Illustrator 27.5.0, SVG Export Plug-In . SVG Version: 6.00 Build 0)  -->
<svg version="1.1" id="PRINT" xmlns="http://www.w3.org/2000/svg" xmlns:xlink="http://www.w3.org/1999/xlink" x="0px" y="0px"
	 viewBox="0 0 500 500" style="enable-background:new 0 0 500 500;" xml:space="preserve">
<g>
	
		<rect id="CUSTOM-Background_00000031184353675384391880000003704147719533694606_" style="fill:#1F4690;" width="500" height="500"/>
	<text transform="matrix(1 0 0 1 151.9865 256.2595)" style="fill:#FFFFFF; font-family:'Bitter-Medium'; font-size:63.9029px;">RealBook</text>
	<g>
		<path style="fill:#FFFFFF;" d="M155.186,269.521h5.179c3.439,0,5.922,1.046,5.922,4.103c0,1.575-0.916,3.112-2.889,3.622v0.103
			c2.413,0.411,3.749,1.701,3.749,3.961c0,3.34-2.666,4.901-6.353,4.901h-5.609V269.521z M160.101,276.379
			c2.334,0,3.287-0.844,3.287-2.398c0-1.521-1.065-2.092-3.222-2.092h-2.028v4.49H160.101z M160.488,283.843
			c2.447,0,3.76-0.841,3.76-2.729c0-1.758-1.265-2.479-3.76-2.479h-2.35v5.208H160.488z"/>
		<path style="fill:#FFFFFF;" d="M187.54,279.958c0-4.189,2.991-6.591,6.295-6.591c3.305,0,6.296,2.402,6.296,6.591
			c0,4.157-2.99,6.56-6.296,6.56C190.531,286.518,187.54,284.115,187.54,279.958z M197.108,279.958c0-2.522-1.227-4.184-3.273-4.184
			c-2.046,0-3.272,1.662-3.272,4.184c0,2.506,1.227,4.151,3.272,4.151C195.882,284.109,197.108,282.464,197.108,279.958z"/>
		<path style="fill:#FFFFFF;" d="M220.731,279.958c0-4.189,2.991-6.591,6.295-6.591c3.305,0,6.295,2.402,6.295,6.591
			c0,4.157-2.99,6.56-6.295,6.56C223.722,286.518,220.731,284.115,220.731,279.958z M230.299,279.958
			c0-2.522-1.227-4.184-3.273-4.184c-2.046,0-3.273,1.662-3.273,4.184c0,2.506,1.227,4.151,3.273,4.151
			C229.073,284.109,230.299,282.464,230.299,279.958z"/>
		<path style="fill:#FFFFFF;" d="M254.854,268.185h2.953v11.276h0.103l5.641-5.788h3.278l-9.022,9.262v3.276h-2.953V268.185z
			 M259.882,280.056l1.726-1.865l5.754,8.021h-3.229L259.882,280.056z"/>
		<path style="fill:#FFFFFF;" d="M287.328,284.577l1.289-1.882c1.495,0.993,3.208,1.591,5.245,1.591
			c1.737,0,2.553-0.661,2.553-1.493c0-0.822-0.551-1.28-3.471-1.885c-3.345-0.701-4.831-1.883-4.831-3.794
			c0-2.179,1.986-3.747,5.493-3.747c2.077,0,3.976,0.814,5.247,1.657l-1.358,1.813c-1.214-0.782-2.662-1.255-4.151-1.255
			c-1.625,0-2.297,0.626-2.297,1.393c0,0.885,0.922,1.194,3.268,1.703c4.007,0.884,5.05,1.952,5.05,3.941
			c0,2.157-2.078,3.898-5.889,3.898C291.136,286.518,288.881,285.633,287.328,284.577z"/>
		<path style="fill:#FFFFFF;" d="M323.787,281.171v-5.159h-3.354v-2.201l3.478-0.138l0.384-3.926h2.445v3.926h5.701v2.339h-5.701
			v5.148c0,2.07,0.778,3.004,2.896,3.004c1.046,0,1.909-0.211,2.728-0.506l0.571,2.147c-1.123,0.371-2.389,0.713-4.011,0.713
			C325.093,286.518,323.787,284.365,323.787,281.171z"/>
		<path style="fill:#FFFFFF;" d="M353.494,279.958c0-4.189,2.99-6.591,6.295-6.591c3.306,0,6.296,2.402,6.296,6.591
			c0,4.157-2.99,6.56-6.296,6.56C356.484,286.518,353.494,284.115,353.494,279.958z M363.063,279.958
			c0-2.522-1.228-4.184-3.273-4.184s-3.272,1.662-3.272,4.184c0,2.506,1.227,4.151,3.272,4.151S363.063,282.464,363.063,279.958z"/>
		<path style="fill:#FFFFFF;" d="M388.64,273.673h2.437l0.251,2.852h0.069c1.273-2.045,3.177-3.157,5.334-3.157
			c1.013,0,1.693,0.155,2.44,0.51l-0.625,2.497c-0.831-0.263-1.318-0.39-2.27-0.39c-1.714,0-3.4,0.879-4.684,3.314v6.913h-2.953
			V273.673z"/>
		<path style="fill:#FFFFFF;" d="M420.08,279.926c0-4.09,3.105-6.559,6.462-6.559c3.742,0,5.817,2.482,5.817,5.951
			c0,0.588-0.079,1.16-0.131,1.482h-10.042v-2.083h8.136l-0.565,0.652c0-2.477-1.164-3.735-3.127-3.735
			c-2.073,0-3.671,1.493-3.671,4.291c0,2.917,1.756,4.307,4.363,4.307c1.313,0,2.393-0.384,3.516-1.024l1.01,1.829
			c-1.338,0.873-3.07,1.48-4.912,1.48C423.098,286.518,420.08,284.099,420.08,279.926z"/>
	</g>
	<path id="CUSTOM" style="fill:#E8AA42;" d="M131.049,251.151h7.807c0.883,0,1.678-0.532,2.016-1.347
		c0.332-0.801,0.157-1.722-0.441-2.346c-0.011-0.011-0.022-0.023-0.033-0.034c-3.962-3.801-3.961-10.64,0-14.441
		c0.011-0.011,0.022-0.022,0.033-0.034c0.599-0.624,0.773-1.544,0.441-2.346c-0.338-0.815-1.133-1.347-2.016-1.347h-7.807
		c-3.402-3.871-3.144-10.223,0.585-13.805c0.624-0.624,0.811-1.563,0.473-2.378c-0.338-0.815-1.133-1.347-2.016-1.347H74.215
		c-4.224,0-7.66,3.436-7.66,7.66v6.574c0,4.224,3.437,7.66,7.66,7.66h1.851c-0.478,0.999-0.747,2.117-0.747,3.296v6.574
		c0,1.179,0.269,2.297,0.747,3.296h-1.851c-4.224,0-7.66,3.436-7.66,7.66v6.574c0,4.224,3.437,7.66,7.66,7.66h1.851
		c-0.478,0.999-0.747,2.117-0.747,3.296v6.574c0,4.224,3.437,7.66,7.66,7.66h55.877c0.883,0,1.678-0.532,2.016-1.347
		c0.332-0.802,0.157-1.722-0.441-2.346c-0.011-0.011-0.022-0.023-0.033-0.034c-3.962-3.801-3.961-10.64,0-14.441
		c0.011-0.011,0.022-0.022,0.033-0.034c0.599-0.624,0.773-1.544,0.441-2.346c-0.338-0.815-1.133-1.347-2.016-1.347h-7.807
		C127.859,260.686,127.859,254.782,131.049,251.151z M70.919,225.961v-6.574c0-1.817,1.479-3.296,3.296-3.296h51.626
		c-2.075,3.994-2.075,9.171,0,13.166H74.215C72.397,229.257,70.919,227.778,70.919,225.961z M92.831,233.621h4.401v4.252
		l-1.277-0.596c-0.792-0.37-1.507-0.158-1.846,0l-1.278,0.596L92.831,233.621L92.831,233.621z M79.684,243.491v-6.574
		c0-1.817,1.479-3.296,3.296-3.296h5.487v7.678c0,0.746,0.381,1.44,1.01,1.841c0.629,0.4,1.419,0.452,2.095,0.137l3.46-1.615
		l3.46,1.615c0.283,0.132,1.174,0.45,2.095-0.137c0.629-0.401,1.01-1.095,1.01-1.841v-7.678h33.01
		c-2.075,3.994-2.075,9.171,0,13.166H82.979C81.162,246.787,79.684,245.308,79.684,243.491L79.684,243.491z M110.361,251.151h4.401
		v4.252l-1.277-0.596c-0.339-0.158-1.054-0.369-1.846,0l-1.277,0.596V251.151z M134.606,281.847H82.979
		c-1.817,0-3.296-1.479-3.296-3.296v-6.574c0-1.818,1.479-3.296,3.296-3.296h51.626
		C132.531,272.676,132.531,277.853,134.606,281.847z M74.215,264.317c-1.817,0-3.296-1.479-3.296-3.296v-6.574
		c0-1.817,1.479-3.296,3.296-3.296h31.782v7.678c0,0.746,0.381,1.44,1.01,1.841c0.629,0.401,1.419,0.452,2.095,0.137l3.46-1.615
		l3.46,1.615c0.283,0.132,1.174,0.45,2.095-0.137c0.629-0.401,1.01-1.095,1.01-1.841v-7.678h6.715
		c-2.075,3.994-2.075,9.171,0,13.166H74.215z"/>
</g>
</svg>
