<?xml version="1.0" encoding="utf-8"?>
<!-- Generator: Adobe Illustrator 27.5.0, SVG Export Plug-In . SVG Version: 6.00 Build 0)  -->
<svg version="1.1" xmlns="http://www.w3.org/2000/svg" xmlns:xlink="http://www.w3.org/1999/xlink" x="0px" y="0px"
	 viewBox="0 0 800 800" style="enable-background:new 0 0 800 800;" xml:space="preserve">
<g id="Background">
	<rect style="fill:#F3943F;" width="800" height="800"/>
</g>
<g id="Objects">
	<g>
		<g>
			<path style="fill:#FFFFFF;" d="M288.491,783.19v-0.258c-0.348,0.398-0.691,0.725-1.03,0.973c-0.339,0.252-0.706,0.441-1.103,0.57
				c-0.395,0.133-0.826,0.195-1.295,0.195c-0.621,0-1.196-0.131-1.725-0.393c-0.529-0.264-0.986-0.639-1.372-1.127
				c-0.388-0.486-0.68-1.059-0.879-1.719c-0.199-0.658-0.3-1.371-0.3-2.137c0-1.621,0.397-2.885,1.188-3.791
				c0.792-0.904,1.834-1.357,3.125-1.357c0.747,0,1.377,0.129,1.891,0.385c0.513,0.256,1.013,0.652,1.5,1.182v-3.826
				c0-0.533,0.105-0.934,0.318-1.207c0.212-0.271,0.514-0.408,0.907-0.408c0.393,0,0.694,0.125,0.907,0.375
				c0.212,0.252,0.318,0.619,0.318,1.107v11.436c0,0.494-0.113,0.863-0.342,1.111c-0.228,0.246-0.522,0.369-0.884,0.369
				c-0.354,0-0.647-0.127-0.879-0.383C288.606,784.029,288.491,783.664,288.491,783.19z M283.392,779.381
				c0,0.703,0.109,1.301,0.327,1.795c0.219,0.494,0.518,0.865,0.897,1.115c0.381,0.25,0.795,0.377,1.244,0.377
				c0.456,0,0.872-0.119,1.25-0.358c0.376-0.236,0.677-0.602,0.901-1.092c0.226-0.49,0.337-1.106,0.337-1.838
				c0-0.691-0.111-1.285-0.337-1.783c-0.225-0.496-0.528-0.875-0.911-1.139c-0.384-0.262-0.803-0.393-1.259-0.393
				c-0.475,0-0.899,0.135-1.272,0.402c-0.374,0.269-0.664,0.654-0.869,1.158C283.493,778.131,283.392,778.715,283.392,779.381z"/>
			<path style="fill:#FFFFFF;" d="M299.925,780.037h-5.07c0.006,0.588,0.124,1.107,0.355,1.557c0.23,0.449,0.539,0.789,0.922,1.016
				c0.383,0.229,0.806,0.342,1.268,0.342c0.311,0,0.594-0.035,0.85-0.107c0.258-0.074,0.506-0.188,0.746-0.344
				c0.241-0.154,0.463-0.32,0.665-0.498c0.202-0.178,0.464-0.42,0.788-0.723c0.133-0.113,0.323-0.172,0.57-0.172
				c0.266,0,0.48,0.074,0.645,0.221c0.165,0.146,0.248,0.35,0.248,0.617c0,0.234-0.092,0.506-0.275,0.82
				c-0.184,0.314-0.461,0.615-0.831,0.902c-0.372,0.289-0.835,0.527-1.397,0.717c-0.559,0.191-1.203,0.285-1.932,0.285
				c-1.665,0-2.961-0.475-3.885-1.424s-1.387-2.238-1.387-3.865c0-0.768,0.113-1.479,0.342-2.133
				c0.228-0.656,0.56-1.217,0.997-1.685c0.436-0.469,0.976-0.828,1.615-1.078c0.64-0.25,1.349-0.375,2.128-0.375
				c1.012,0,1.881,0.213,2.605,0.641c0.727,0.428,1.27,0.981,1.63,1.656c0.36,0.678,0.542,1.369,0.542,2.07
				c0,0.654-0.188,1.076-0.561,1.269C301.13,779.94,300.603,780.037,299.925,780.037z M294.854,778.565h4.701
				c-0.063-0.887-0.303-1.551-0.717-1.99c-0.416-0.441-0.961-0.66-1.639-0.66c-0.647,0-1.177,0.223-1.591,0.668
				C295.194,777.029,294.943,777.69,294.854,778.565z"/>
			<path style="fill:#FFFFFF;" d="M311.74,781.279c0,0.715-0.173,1.328-0.522,1.838c-0.348,0.51-0.862,0.896-1.543,1.16
				c-0.681,0.262-1.509,0.393-2.484,0.393c-0.93,0-1.729-0.143-2.393-0.428c-0.665-0.283-1.156-0.641-1.473-1.066
				c-0.316-0.43-0.475-0.857-0.475-1.289c0-0.285,0.101-0.527,0.305-0.73c0.201-0.201,0.459-0.303,0.77-0.303
				c0.271,0,0.479,0.066,0.625,0.199c0.146,0.133,0.286,0.32,0.418,0.559c0.266,0.465,0.585,0.807,0.955,1.037
				c0.371,0.227,0.875,0.342,1.516,0.342c0.52,0,0.945-0.117,1.277-0.348c0.332-0.232,0.498-0.496,0.498-0.793
				c0-0.457-0.172-0.787-0.518-0.996c-0.346-0.209-0.914-0.41-1.705-0.6c-0.893-0.221-1.619-0.455-2.18-0.699
				c-0.56-0.242-1.008-0.565-1.344-0.963c-0.336-0.398-0.504-0.891-0.504-1.473c0-0.517,0.155-1.01,0.466-1.473
				c0.311-0.461,0.768-0.83,1.374-1.105c0.604-0.275,1.332-0.414,2.188-0.414c0.672,0,1.275,0.07,1.809,0.211
				c0.536,0.137,0.983,0.326,1.34,0.56c0.358,0.233,0.631,0.492,0.816,0.777c0.188,0.285,0.28,0.563,0.28,0.836
				c0,0.297-0.1,0.541-0.298,0.732c-0.199,0.188-0.482,0.285-0.852,0.285c-0.266,0-0.492-0.076-0.678-0.23
				c-0.188-0.15-0.4-0.379-0.642-0.682c-0.196-0.254-0.427-0.457-0.692-0.609c-0.267-0.152-0.627-0.227-1.084-0.227
				c-0.469,0-0.857,0.098-1.168,0.299c-0.31,0.199-0.465,0.447-0.465,0.744c0,0.273,0.113,0.496,0.341,0.67
				c0.229,0.176,0.535,0.32,0.923,0.434c0.386,0.113,0.916,0.252,1.596,0.416c0.803,0.197,1.459,0.432,1.97,0.703
				c0.509,0.272,0.896,0.594,1.159,0.965C311.609,780.383,311.74,780.805,311.74,781.279z"/>
			<path style="fill:#FFFFFF;" d="M314.39,772.922c-0.361,0-0.67-0.111-0.926-0.332c-0.257-0.221-0.385-0.535-0.385-0.941
				c0-0.367,0.131-0.668,0.394-0.906c0.263-0.238,0.569-0.357,0.917-0.357c0.336,0,0.633,0.107,0.893,0.324
				c0.26,0.215,0.39,0.527,0.39,0.939c0,0.4-0.128,0.711-0.381,0.936S314.737,772.922,314.39,772.922z M315.672,775.6v7.494
				c0,0.519-0.124,0.912-0.37,1.178c-0.248,0.266-0.561,0.398-0.941,0.398c-0.38,0-0.688-0.135-0.926-0.408
				c-0.238-0.272-0.355-0.662-0.355-1.168v-7.418c0-0.512,0.117-0.898,0.355-1.158c0.237-0.26,0.546-0.391,0.926-0.391
				c0.381,0,0.693,0.131,0.941,0.391C315.548,774.777,315.672,775.139,315.672,775.6z"/>
			<path style="fill:#FFFFFF;" d="M327.03,776.027v7.531c0,0.861-0.092,1.604-0.276,2.225c-0.183,0.619-0.478,1.133-0.883,1.537
				s-0.936,0.707-1.591,0.902c-0.654,0.197-1.471,0.295-2.445,0.295c-0.893,0-1.691-0.125-2.395-0.375
				c-0.701-0.252-1.242-0.574-1.623-0.969c-0.38-0.397-0.57-0.803-0.57-1.221c0-0.316,0.107-0.576,0.323-0.773
				c0.215-0.201,0.476-0.301,0.778-0.301c0.38,0,0.713,0.168,0.998,0.504c0.139,0.17,0.282,0.344,0.432,0.518
				c0.148,0.176,0.315,0.324,0.494,0.447c0.18,0.123,0.396,0.215,0.65,0.275c0.253,0.059,0.545,0.09,0.873,0.09
				c0.672,0,1.193-0.094,1.564-0.281c0.37-0.185,0.63-0.447,0.778-0.783c0.149-0.334,0.236-0.693,0.262-1.078
				c0.025-0.383,0.044-0.998,0.057-1.848c-0.4,0.559-0.859,0.982-1.383,1.273c-0.521,0.291-1.145,0.438-1.865,0.438
				c-0.867,0-1.625-0.223-2.275-0.666c-0.648-0.443-1.147-1.063-1.495-1.861c-0.349-0.799-0.522-1.719-0.522-2.764
				c0-0.777,0.105-1.482,0.318-2.107c0.213-0.629,0.515-1.156,0.906-1.588c0.393-0.43,0.846-0.754,1.358-0.973
				c0.513-0.219,1.076-0.328,1.691-0.328c0.734,0,1.371,0.143,1.91,0.422c0.537,0.283,1.038,0.725,1.5,1.326v-0.351
				c0-0.449,0.11-0.797,0.332-1.045c0.223-0.246,0.508-0.371,0.855-0.371c0.5,0,0.832,0.164,0.996,0.49
				C326.948,774.943,327.03,775.414,327.03,776.027z M319.518,779.315c0,1.051,0.23,1.846,0.689,2.383
				c0.459,0.539,1.053,0.809,1.781,0.809c0.43,0,0.836-0.117,1.219-0.348c0.385-0.231,0.695-0.58,0.938-1.045
				c0.239-0.465,0.36-1.029,0.36-1.695c0-1.057-0.232-1.881-0.698-2.469c-0.466-0.588-1.078-0.883-1.838-0.883
				c-0.742,0-1.335,0.281-1.781,0.846C319.74,777.475,319.518,778.275,319.518,779.315z"/>
			<path style="fill:#FFFFFF;" d="M331.151,775.563v0.313c0.455-0.602,0.954-1.043,1.496-1.324c0.541-0.281,1.162-0.424,1.865-0.424
				c0.685,0,1.295,0.15,1.834,0.447c0.537,0.299,0.941,0.719,1.205,1.262c0.172,0.318,0.283,0.66,0.333,1.027
				c0.051,0.367,0.077,0.836,0.077,1.406v4.824c0,0.519-0.119,0.912-0.357,1.178c-0.236,0.266-0.545,0.398-0.926,0.398
				c-0.387,0-0.699-0.135-0.939-0.408c-0.242-0.272-0.361-0.662-0.361-1.168v-4.322c0-0.853-0.119-1.508-0.356-1.961
				c-0.237-0.451-0.71-0.68-1.421-0.68c-0.461,0-0.883,0.139-1.262,0.414c-0.381,0.275-0.659,0.654-0.836,1.135
				c-0.127,0.387-0.19,1.107-0.19,2.166v3.248c0,0.525-0.122,0.92-0.365,1.183c-0.243,0.262-0.559,0.393-0.944,0.393
				c-0.375,0-0.682-0.135-0.922-0.408c-0.24-0.272-0.361-0.662-0.361-1.168V775.6c0-0.494,0.107-0.863,0.322-1.107
				c0.216-0.242,0.51-0.365,0.883-0.365c0.228,0,0.436,0.055,0.619,0.162c0.183,0.109,0.33,0.269,0.441,0.484
				C331.097,774.988,331.151,775.252,331.151,775.563z"/>
			<path style="fill:#FFFFFF;" d="M346.926,780.037h-5.071c0.007,0.588,0.125,1.107,0.356,1.557
				c0.232,0.449,0.538,0.789,0.921,1.016c0.383,0.229,0.806,0.342,1.268,0.342c0.311,0,0.594-0.035,0.852-0.107
				c0.255-0.074,0.504-0.188,0.745-0.344c0.239-0.154,0.461-0.32,0.665-0.498c0.201-0.178,0.465-0.42,0.787-0.723
				c0.133-0.113,0.323-0.172,0.57-0.172c0.266,0,0.481,0.074,0.646,0.221c0.164,0.146,0.246,0.35,0.246,0.617
				c0,0.234-0.092,0.506-0.275,0.82c-0.184,0.314-0.461,0.615-0.832,0.902c-0.37,0.289-0.834,0.527-1.395,0.717
				c-0.561,0.191-1.205,0.285-1.934,0.285c-1.665,0-2.96-0.475-3.885-1.424c-0.924-0.949-1.387-2.238-1.387-3.865
				c0-0.768,0.114-1.479,0.342-2.133c0.228-0.656,0.56-1.217,0.998-1.685c0.437-0.469,0.975-0.828,1.614-1.078
				c0.64-0.25,1.349-0.375,2.128-0.375c1.013,0,1.881,0.213,2.605,0.641c0.727,0.428,1.27,0.981,1.631,1.656
				c0.359,0.678,0.541,1.369,0.541,2.07c0,0.654-0.186,1.076-0.561,1.269C348.13,779.94,347.604,780.037,346.926,780.037z
				 M341.854,778.565h4.701c-0.063-0.887-0.303-1.551-0.717-1.99c-0.415-0.441-0.961-0.66-1.639-0.66
				c-0.647,0-1.177,0.223-1.592,0.668C342.194,777.029,341.943,777.69,341.854,778.565z"/>
			<path style="fill:#FFFFFF;" d="M357.495,783.19v-0.258c-0.348,0.398-0.691,0.725-1.029,0.973c-0.34,0.252-0.706,0.441-1.102,0.57
				c-0.396,0.133-0.828,0.195-1.297,0.195c-0.621,0-1.195-0.131-1.724-0.393c-0.528-0.264-0.986-0.639-1.372-1.127
				c-0.387-0.486-0.68-1.059-0.879-1.719c-0.199-0.658-0.299-1.371-0.299-2.137c0-1.621,0.395-2.885,1.187-3.791
				c0.792-0.904,1.833-1.357,3.125-1.357c0.747,0,1.378,0.129,1.89,0.385c0.514,0.256,1.014,0.652,1.5,1.182v-3.826
				c0-0.533,0.107-0.934,0.319-1.207c0.212-0.271,0.515-0.408,0.907-0.408c0.393,0,0.694,0.125,0.906,0.375
				c0.213,0.252,0.318,0.619,0.318,1.107v11.436c0,0.494-0.113,0.863-0.342,1.111c-0.227,0.246-0.521,0.369-0.883,0.369
				c-0.354,0-0.647-0.127-0.879-0.383C357.611,784.029,357.495,783.664,357.495,783.19z M352.395,779.381
				c0,0.703,0.109,1.301,0.328,1.795c0.218,0.494,0.518,0.865,0.898,1.115c0.379,0.25,0.793,0.377,1.242,0.377
				c0.457,0,0.873-0.119,1.25-0.358c0.377-0.236,0.678-0.602,0.902-1.092c0.225-0.49,0.337-1.106,0.337-1.838
				c0-0.691-0.112-1.285-0.337-1.783c-0.225-0.496-0.529-0.875-0.912-1.139c-0.384-0.262-0.803-0.393-1.259-0.393
				c-0.474,0-0.899,0.135-1.273,0.402c-0.373,0.269-0.663,0.654-0.869,1.158C352.498,778.131,352.395,778.715,352.395,779.381z"/>
			<path style="fill:#FFFFFF;" d="M368.094,771.754v3.959c0.487-0.506,0.984-0.894,1.491-1.162c0.506-0.269,1.134-0.404,1.881-0.404
				c0.861,0,1.615,0.205,2.266,0.611c0.648,0.41,1.151,1.002,1.51,1.777c0.357,0.775,0.537,1.695,0.537,2.76
				c0,0.785-0.1,1.504-0.299,2.16c-0.2,0.656-0.49,1.225-0.869,1.705c-0.381,0.48-0.842,0.853-1.383,1.117
				c-0.541,0.262-1.139,0.393-1.79,0.393c-0.399,0-0.774-0.047-1.126-0.143c-0.352-0.094-0.65-0.219-0.897-0.375
				c-0.246-0.154-0.457-0.314-0.632-0.478c-0.174-0.164-0.404-0.412-0.688-0.742v0.258c0,0.486-0.117,0.855-0.352,1.107
				c-0.233,0.25-0.531,0.373-0.893,0.373c-0.367,0-0.66-0.123-0.878-0.373c-0.219-0.252-0.328-0.621-0.328-1.107v-11.322
				c0-0.525,0.105-0.924,0.317-1.191c0.212-0.269,0.509-0.404,0.889-0.404c0.399,0,0.706,0.129,0.921,0.385
				C367.985,770.914,368.094,771.277,368.094,771.754z M368.218,779.457c0,1.031,0.235,1.824,0.707,2.377
				c0.472,0.555,1.091,0.834,1.857,0.834c0.651,0,1.214-0.283,1.686-0.852c0.471-0.566,0.707-1.379,0.707-2.435
				c0-0.684-0.098-1.273-0.294-1.768c-0.196-0.494-0.475-0.875-0.835-1.144c-0.361-0.268-0.783-0.402-1.264-0.402
				c-0.494,0-0.936,0.135-1.32,0.402c-0.387,0.269-0.69,0.658-0.912,1.168C368.328,778.146,368.218,778.754,368.218,779.457z"/>
			<path style="fill:#FFFFFF;" d="M379.14,784.994l0.237-0.58l-3.192-8.035c-0.196-0.461-0.295-0.799-0.295-1.008
				c0-0.221,0.058-0.426,0.171-0.615c0.115-0.191,0.272-0.344,0.471-0.457c0.199-0.115,0.406-0.172,0.622-0.172
				c0.373,0,0.655,0.119,0.846,0.357c0.19,0.236,0.357,0.576,0.503,1.02l2.194,6.383l2.08-5.936c0.164-0.48,0.314-0.857,0.446-1.131
				c0.133-0.271,0.273-0.455,0.422-0.549c0.148-0.096,0.359-0.144,0.633-0.144c0.197,0,0.385,0.053,0.565,0.158
				c0.181,0.103,0.32,0.244,0.418,0.422c0.098,0.178,0.148,0.363,0.148,0.561c-0.027,0.119-0.066,0.291-0.125,0.514
				c-0.057,0.221-0.126,0.447-0.208,0.674l-3.382,8.852c-0.291,0.779-0.576,1.389-0.855,1.832c-0.278,0.443-0.647,0.785-1.105,1.022
				c-0.46,0.238-1.078,0.357-1.857,0.357c-0.76,0-1.33-0.082-1.709-0.246c-0.381-0.166-0.57-0.467-0.57-0.904
				c0-0.297,0.09-0.527,0.272-0.688c0.18-0.162,0.447-0.244,0.801-0.244c0.141,0,0.277,0.02,0.41,0.059
				c0.164,0.037,0.307,0.057,0.426,0.057c0.298,0,0.533-0.043,0.704-0.133c0.171-0.088,0.323-0.242,0.46-0.461
				C378.806,785.74,378.962,785.418,379.14,784.994z"/>
		</g>
		<g>
			<path style="fill:#FFFFFF;" d="M416.702,774.352h0.619v-0.777c0-0.814,0.1-1.457,0.307-1.938
				c0.203-0.479,0.555-0.826,1.047-1.045c0.49-0.217,1.162-0.326,2.016-0.326c1.52,0,2.273,0.367,2.273,1.113
				c0,0.238-0.08,0.445-0.24,0.615c-0.154,0.17-0.344,0.256-0.559,0.256c-0.1,0-0.277-0.018-0.527-0.059
				c-0.236-0.033-0.451-0.057-0.623-0.057c-0.467,0-0.766,0.141-0.904,0.416c-0.127,0.275-0.195,0.668-0.195,1.184v0.617h0.633
				c0.99,0,1.48,0.297,1.48,0.896c0,0.418-0.127,0.69-0.393,0.805c-0.262,0.113-0.623,0.17-1.088,0.17h-0.633v6.871
				c0,0.512-0.121,0.9-0.369,1.168c-0.242,0.273-0.555,0.406-0.943,0.406c-0.367,0-0.67-0.133-0.918-0.406
				c-0.244-0.268-0.363-0.656-0.363-1.168v-6.871h-0.715c-0.389,0-0.682-0.084-0.892-0.262c-0.209-0.17-0.315-0.398-0.315-0.678
				C415.399,774.66,415.833,774.352,416.702,774.352"/>
			<path style="fill:#FFFFFF;" d="M425.192,780.926v2.168c0,0.523-0.133,0.92-0.375,1.18c-0.246,0.266-0.559,0.395-0.938,0.395
				c-0.381,0-0.688-0.131-0.926-0.4c-0.236-0.264-0.361-0.656-0.361-1.174v-7.223c0-1.166,0.42-1.748,1.262-1.748
				c0.434,0,0.742,0.135,0.934,0.408c0.189,0.273,0.295,0.674,0.316,1.207c0.309-0.533,0.625-0.934,0.949-1.207
				c0.332-0.273,0.762-0.408,1.309-0.408c0.549,0,1.072,0.135,1.586,0.408c0.516,0.273,0.772,0.637,0.772,1.084
				c0,0.315-0.111,0.58-0.326,0.781c-0.221,0.209-0.455,0.313-0.707,0.313c-0.1,0-0.33-0.063-0.691-0.18
				c-0.365-0.113-0.689-0.174-0.963-0.174c-0.381,0-0.693,0.103-0.932,0.299c-0.242,0.205-0.432,0.496-0.564,0.887
				c-0.129,0.394-0.219,0.865-0.273,1.404C425.214,779.486,425.192,780.148,425.192,780.926"/>
			<path style="fill:#FFFFFF;" d="M437.112,780.033h-5.074c0.01,0.588,0.125,1.111,0.355,1.559c0.234,0.447,0.539,0.787,0.924,1.018
				c0.385,0.227,0.805,0.34,1.27,0.34c0.311,0,0.592-0.033,0.85-0.111c0.254-0.07,0.504-0.186,0.744-0.342
				c0.242-0.152,0.461-0.318,0.664-0.5c0.203-0.174,0.467-0.416,0.791-0.719c0.135-0.113,0.324-0.174,0.568-0.174
				c0.268,0,0.48,0.074,0.648,0.223c0.166,0.147,0.244,0.35,0.244,0.617c0,0.234-0.09,0.508-0.268,0.818
				c-0.188,0.318-0.463,0.617-0.836,0.906c-0.375,0.285-0.84,0.527-1.398,0.715c-0.559,0.19-1.205,0.285-1.932,0.285
				c-1.67,0-2.963-0.473-3.887-1.422c-0.924-0.951-1.391-2.242-1.391-3.867c0-0.768,0.117-1.479,0.348-2.135
				c0.225-0.658,0.557-1.217,0.998-1.688c0.436-0.471,0.971-0.828,1.613-1.078c0.637-0.25,1.346-0.375,2.127-0.375
				c1.012,0,1.881,0.215,2.607,0.646c0.723,0.422,1.273,0.977,1.629,1.654c0.361,0.68,0.541,1.367,0.541,2.074
				c0,0.648-0.188,1.07-0.561,1.266C438.315,779.938,437.79,780.033,437.112,780.033 M432.038,778.559h4.701
				c-0.063-0.885-0.297-1.549-0.713-1.986c-0.418-0.441-0.959-0.66-1.641-0.66c-0.646,0-1.178,0.221-1.592,0.67
				C432.38,777.027,432.126,777.685,432.038,778.559"/>
			<path style="fill:#FFFFFF;" d="M447.899,780.033h-5.072c0.006,0.588,0.125,1.111,0.354,1.559
				c0.232,0.447,0.539,0.787,0.922,1.018c0.383,0.227,0.805,0.34,1.272,0.34c0.307,0,0.592-0.033,0.844-0.111
				c0.26-0.07,0.506-0.186,0.75-0.342c0.242-0.152,0.461-0.318,0.664-0.5c0.199-0.174,0.465-0.416,0.789-0.719
				c0.135-0.113,0.326-0.174,0.568-0.174c0.267,0,0.482,0.074,0.65,0.223c0.164,0.147,0.24,0.35,0.24,0.617
				c0,0.234-0.088,0.508-0.273,0.818c-0.178,0.318-0.455,0.617-0.83,0.906c-0.371,0.285-0.84,0.527-1.397,0.715
				c-0.557,0.19-1.207,0.285-1.934,0.285c-1.668,0-2.959-0.473-3.887-1.422c-0.924-0.951-1.389-2.242-1.389-3.867
				c0-0.768,0.115-1.479,0.348-2.135c0.227-0.658,0.559-1.217,0.996-1.688c0.436-0.471,0.973-0.828,1.613-1.078
				c0.639-0.25,1.352-0.375,2.129-0.375c1.01,0,1.879,0.215,2.613,0.646c0.721,0.422,1.266,0.977,1.621,1.654
				c0.359,0.68,0.545,1.367,0.545,2.074c0,0.648-0.191,1.07-0.561,1.266C449.101,779.938,448.575,780.033,447.899,780.033
				 M442.827,778.559h4.701c-0.064-0.885-0.305-1.549-0.715-1.986c-0.422-0.441-0.963-0.66-1.643-0.66
				c-0.647,0-1.176,0.221-1.594,0.67C443.165,777.027,442.911,777.685,442.827,778.559"/>
			<path style="fill:#FFFFFF;" d="M453.579,775.582v0.311c0.486-0.602,0.994-1.043,1.525-1.324c0.518-0.285,1.117-0.428,1.781-0.428
				c0.795,0,1.535,0.209,2.207,0.617c0.672,0.414,1.199,1.016,1.59,1.807c0.389,0.795,0.586,1.73,0.586,2.814
				c0,0.795-0.113,1.531-0.336,2.201c-0.225,0.668-0.537,1.227-0.93,1.68c-0.393,0.449-0.855,0.801-1.389,1.045
				c-0.543,0.242-1.111,0.363-1.729,0.363c-0.738,0-1.363-0.149-1.865-0.447c-0.502-0.291-0.982-0.732-1.441-1.305v3.893
				c0,1.135-0.416,1.709-1.244,1.709c-0.49,0-0.809-0.146-0.971-0.439c-0.152-0.299-0.234-0.723-0.234-1.291v-11.193
				c0-0.494,0.107-0.859,0.32-1.107c0.215-0.238,0.512-0.363,0.885-0.363c0.369,0,0.666,0.125,0.896,0.373
				C453.466,774.75,453.579,775.107,453.579,775.582 M458.663,779.35c0-0.685-0.105-1.273-0.314-1.764
				c-0.209-0.492-0.498-0.867-0.865-1.127c-0.367-0.264-0.783-0.396-1.232-0.396c-0.715,0-1.318,0.283-1.809,0.844
				c-0.492,0.566-0.74,1.394-0.74,2.492c0,1.027,0.244,1.834,0.736,2.406c0.486,0.574,1.086,0.859,1.813,0.859
				c0.428,0,0.83-0.127,1.197-0.373c0.371-0.252,0.664-0.627,0.883-1.127C458.552,780.662,458.663,780.057,458.663,779.35"/>
			<path style="fill:#FFFFFF;" d="M463.88,772.916c-0.363,0-0.67-0.115-0.924-0.336c-0.26-0.223-0.387-0.531-0.387-0.936
				c0-0.369,0.131-0.67,0.397-0.91c0.262-0.234,0.566-0.355,0.914-0.355c0.34,0,0.635,0.105,0.893,0.318
				c0.26,0.219,0.391,0.535,0.391,0.947c0,0.399-0.127,0.711-0.377,0.936C464.532,772.801,464.231,772.916,463.88,772.916
				 M465.163,775.594v7.502c0,0.516-0.123,0.908-0.369,1.172c-0.25,0.27-0.56,0.4-0.941,0.4c-0.381,0-0.685-0.133-0.928-0.406
				c-0.234-0.275-0.355-0.664-0.355-1.166v-7.428c0-0.51,0.121-0.895,0.355-1.154c0.242-0.264,0.547-0.391,0.928-0.391
				c0.381,0,0.691,0.127,0.941,0.391C465.04,774.773,465.163,775.137,465.163,775.594"/>
			<path style="fill:#FFFFFF;" d="M473.522,783.484l-2.283-3.766l-1.408,1.328v2.066c0,0.498-0.133,0.881-0.396,1.148
				c-0.258,0.273-0.566,0.406-0.906,0.406c-0.398,0-0.715-0.131-0.941-0.4c-0.227-0.264-0.344-0.656-0.344-1.174v-11.063
				c0-0.574,0.115-1.012,0.332-1.315c0.223-0.305,0.545-0.451,0.953-0.451c0.398,0,0.713,0.137,0.949,0.41
				c0.234,0.272,0.354,0.674,0.354,1.203v6.293l2.916-3.063c0.361-0.377,0.633-0.641,0.826-0.779c0.19-0.139,0.42-0.207,0.69-0.207
				c0.326,0,0.594,0.104,0.816,0.309c0.211,0.205,0.32,0.465,0.32,0.773c0,0.379-0.353,0.889-1.055,1.522l-1.377,1.262l2.658,4.184
				c0.193,0.313,0.34,0.543,0.424,0.705c0.084,0.16,0.131,0.32,0.131,0.463c0,0.412-0.115,0.734-0.342,0.975
				c-0.225,0.236-0.523,0.354-0.885,0.354c-0.316,0-0.565-0.08-0.734-0.256C474.05,784.24,473.813,783.93,473.522,783.484"/>
			<path style="fill:#FFFFFF;" d="M479.159,784.668c-0.393,0-0.728-0.125-1.014-0.381c-0.285-0.248-0.43-0.606-0.43-1.064
				c0-0.385,0.139-0.719,0.41-0.994c0.275-0.279,0.607-0.42,1.008-0.42c0.398,0,0.736,0.141,1.023,0.412
				c0.279,0.275,0.422,0.613,0.422,1.002c0,0.453-0.143,0.809-0.422,1.06C479.87,784.543,479.538,784.668,479.159,784.668"/>
			<path style="fill:#FFFFFF;" d="M492.058,781.459c0,0.32-0.098,0.668-0.291,1.033c-0.191,0.371-0.488,0.719-0.887,1.051
				c-0.395,0.332-0.891,0.601-1.494,0.803c-0.602,0.203-1.281,0.307-2.031,0.307c-1.605,0-2.857-0.469-3.758-1.4
				c-0.895-0.936-1.346-2.19-1.346-3.76c0-1.068,0.205-2.006,0.619-2.824c0.408-0.815,1.004-1.447,1.781-1.895
				c0.779-0.447,1.717-0.67,2.795-0.67c0.674,0,1.287,0.098,1.852,0.295c0.561,0.195,1.033,0.451,1.426,0.76
				c0.387,0.315,0.686,0.643,0.889,0.992c0.207,0.352,0.309,0.68,0.309,0.986c0,0.309-0.113,0.572-0.344,0.787
				c-0.234,0.215-0.516,0.324-0.838,0.324c-0.219,0-0.398-0.057-0.541-0.166c-0.145-0.111-0.305-0.289-0.478-0.541
				c-0.318-0.479-0.647-0.842-0.996-1.08c-0.344-0.242-0.781-0.361-1.314-0.361c-0.762,0-1.383,0.297-1.853,0.896
				c-0.467,0.596-0.703,1.42-0.703,2.455c0,0.488,0.063,0.939,0.184,1.348c0.117,0.406,0.291,0.756,0.52,1.043
				c0.23,0.287,0.504,0.506,0.826,0.654c0.324,0.154,0.682,0.227,1.065,0.227c0.521,0,0.967-0.121,1.336-0.361
				c0.377-0.24,0.703-0.607,0.986-1.102c0.158-0.291,0.328-0.518,0.51-0.684c0.182-0.164,0.408-0.25,0.676-0.25
				c0.316,0,0.58,0.123,0.785,0.363C491.95,780.93,492.058,781.188,492.058,781.459"/>
			<path style="fill:#FFFFFF;" d="M503.247,779.398c0,0.77-0.121,1.484-0.355,2.139c-0.246,0.652-0.592,1.213-1.049,1.678
				c-0.455,0.469-1.002,0.828-1.633,1.08c-0.639,0.248-1.35,0.375-2.139,0.375c-0.785,0-1.492-0.127-2.121-0.383
				c-0.623-0.248-1.17-0.613-1.625-1.082c-0.461-0.477-0.809-1.033-1.053-1.676c-0.229-0.644-0.35-1.355-0.35-2.131
				c0-0.787,0.123-1.506,0.357-2.158c0.242-0.654,0.59-1.213,1.039-1.674c0.451-0.461,0.994-0.816,1.631-1.07
				c0.645-0.248,1.35-0.373,2.121-0.373c0.785,0,1.498,0.125,2.139,0.381c0.639,0.252,1.184,0.615,1.645,1.08
				c0.457,0.475,0.803,1.029,1.039,1.672C503.128,777.906,503.247,778.615,503.247,779.398 M500.644,779.398
				c0-1.059-0.234-1.881-0.697-2.469c-0.463-0.596-1.09-0.889-1.875-0.889c-0.508,0-0.955,0.133-1.342,0.394
				c-0.387,0.262-0.682,0.648-0.891,1.164c-0.209,0.514-0.315,1.113-0.315,1.799c0,0.678,0.102,1.268,0.309,1.773
				c0.209,0.51,0.502,0.897,0.887,1.166c0.385,0.266,0.834,0.404,1.352,0.404c0.785,0,1.412-0.297,1.875-0.893
				C500.409,781.26,500.644,780.44,500.644,779.398"/>
			<path style="fill:#FFFFFF;" d="M513.14,779.588v3.447c0,0.547-0.121,0.951-0.369,1.227c-0.25,0.273-0.572,0.408-0.979,0.408
				c-0.393,0-0.713-0.135-0.951-0.408c-0.246-0.275-0.371-0.68-0.371-1.227v-4.131c0-0.654-0.022-1.162-0.064-1.525
				c-0.045-0.354-0.168-0.654-0.361-0.883c-0.197-0.234-0.51-0.352-0.932-0.352c-0.85,0-1.406,0.291-1.676,0.881
				c-0.268,0.576-0.406,1.414-0.406,2.508v3.502c0,0.537-0.123,0.945-0.361,1.223c-0.25,0.273-0.568,0.412-0.965,0.412
				c-0.397,0-0.717-0.139-0.967-0.412c-0.252-0.277-0.377-0.685-0.377-1.223v-7.42c0-0.488,0.111-0.859,0.336-1.111
				c0.228-0.256,0.525-0.381,0.889-0.381c0.357,0,0.652,0.123,0.892,0.356c0.236,0.238,0.354,0.566,0.354,0.984v0.244
				c0.453-0.535,0.936-0.932,1.445-1.18c0.516-0.26,1.082-0.387,1.713-0.387c0.65,0,1.211,0.131,1.678,0.391
				c0.469,0.26,0.854,0.654,1.16,1.176c0.44-0.527,0.908-0.922,1.41-1.18c0.5-0.258,1.053-0.387,1.662-0.387
				c0.705,0,1.32,0.143,1.834,0.42c0.51,0.277,0.893,0.68,1.146,1.195c0.221,0.473,0.33,1.209,0.33,2.217v5.063
				c0,0.547-0.121,0.951-0.367,1.227c-0.246,0.273-0.574,0.408-0.979,0.408c-0.395,0-0.715-0.139-0.965-0.412
				c-0.25-0.277-0.377-0.685-0.377-1.223v-4.361c0-0.559-0.023-1.004-0.068-1.338c-0.047-0.338-0.178-0.621-0.383-0.848
				c-0.213-0.227-0.531-0.344-0.953-0.344c-0.342,0-0.666,0.108-0.975,0.309c-0.307,0.197-0.547,0.477-0.721,0.813
				C513.237,777.703,513.14,778.479,513.14,779.588"/>
		</g>
		<g>
			<path style="fill:#FFFFFF;" d="M392.435,778.769c-0.002-0.004-0.002-0.01-0.002-0.017
				C392.433,778.76,392.433,778.766,392.435,778.769z"/>
			<path style="fill:#FFFFFF;" d="M392.565,779.6c0.002,0,0.002,0,0.003,0c-0.05-0.236-0.089-0.471-0.118-0.703
				C392.479,779.131,392.519,779.365,392.565,779.6z"/>
			<path style="fill:#FFFFFF;" d="M393.424,782.006c-0.006-0.01-0.011-0.022-0.017-0.033
				C393.413,781.984,393.418,781.996,393.424,782.006z"/>
			<path style="fill:#FFFFFF;" d="M393.342,781.846c-0.023-0.045-0.044-0.09-0.065-0.135
				C393.298,781.758,393.319,781.801,393.342,781.846z"/>
			<path style="fill:#FFFFFF;" d="M392.807,780.525c0.127,0.4,0.28,0.789,0.457,1.158c-0.181-0.377-0.33-0.766-0.454-1.158
				C392.81,780.525,392.808,780.525,392.807,780.525z"/>
			<path style="fill:#FFFFFF;" d="M402.472,768.834c0.502,0,0.871,0.039,1.295,0.111l0.121-0.764c0,0-1.172-0.359-2.711-0.234
				l-0.121-0.414c0.478-0.102,0.838-0.527,0.838-1.035c0-0.582-0.475-1.053-1.057-1.053c-0.584,0-1.057,0.471-1.057,1.053
				c0,0.508,0.359,0.934,0.836,1.035l0.135,0.463c-1.635,0.225-2.936,0.861-2.936,0.861l0.23,0.705
				c0.988-0.328,1.846-0.529,2.624-0.613C401.432,768.869,402.005,768.834,402.472,768.834z"/>
			<path style="fill:#FFFFFF;" d="M393.404,772.691l0.006-0.008c0.038-0.049,0.075-0.096,0.113-0.143l-0.313-0.225l-0.487-0.357
				c-0.027,0.039-0.795,0.744-1.401,2.049c-0.025-0.041-0.056-0.082-0.09-0.119c-0.182-0.199-0.435-0.301-0.758-0.295
				c-0.004,0-0.01,0-0.016,0c-0.199,0-0.336-0.067-0.426-0.146c0.089-0.113,0.143-0.256,0.143-0.414c0-0.367-0.3-0.668-0.67-0.668
				c-0.368,0-0.668,0.301-0.668,0.668c0,0.371,0.3,0.67,0.668,0.67c0.059,0,0.113-0.01,0.168-0.022
				c0.164,0.184,0.425,0.342,0.807,0.334c0.197-0.002,0.342,0.049,0.438,0.156c0.111,0.121,0.148,0.295,0.16,0.428
				c-0.001,0.002-0.001,0.004-0.003,0.004c-0.435,1.19-0.311,2.67-0.311,2.67l1.058,0.043c0.022-0.539,0.099-1.482,0.372-2.231
				C392.718,773.637,393.378,772.731,393.404,772.691z"/>
			<path style="fill:#FFFFFF;" d="M411.671,769.717c-0.367,0-0.668,0.299-0.668,0.67c0,0.057,0.008,0.111,0.023,0.164
				c-0.184,0.166-0.344,0.428-0.338,0.811c0.004,0.197-0.047,0.34-0.154,0.438c-0.084,0.074-0.191,0.115-0.295,0.141
				c-0.787-1.104-1.756-1.775-1.756-1.775l-0.76,0.813c0.574,0.521,1.16,1.176,1.728,1.99c0.395,0.565,0.799,1.291,1.137,2.016
				l1.023-0.486c0,0-0.467-1.156-1.125-2.191c0.113-0.041,0.228-0.104,0.33-0.193c0.201-0.18,0.299-0.436,0.293-0.758
				c-0.002-0.207,0.066-0.348,0.148-0.441c0.115,0.088,0.258,0.143,0.412,0.143c0.371,0,0.67-0.299,0.67-0.668
				C412.341,770.016,412.042,769.717,411.671,769.717z"/>
			<path style="fill:#FFFFFF;" d="M409.015,778.92c-1.41,0.686-3.728,1.594-6.781,2.02c-1.199,0.166-2.359,0.227-3.429,0.227
				c-1.391,0-2.62-0.104-3.563-0.223c-1.076-0.135-1.917-0.301-2.433-0.418c0.124,0.393,0.273,0.781,0.454,1.158
				c0.003,0.01,0.008,0.021,0.013,0.027c0.021,0.045,0.043,0.09,0.065,0.135c0.021,0.043,0.043,0.086,0.065,0.127
				c0.006,0.012,0.011,0.023,0.017,0.033c0.303,0.57,0.667,1.094,1.081,1.549c1.439,1.574,2.906,1.824,2.92,1.826l0.023,0.002
				l0.022,0.008c0.014,0.006,1.314,0.426,3.291,0.426c1.945,0,3.855-0.393,5.674-1.168c1.348-0.689,2.623-1.736,3.254-2.67
				c0.488-0.723,0.842-1.492,1.051-2.293c0.111-0.426,0.199-1.107,0.146-1.826C410.489,778.127,409.862,778.506,409.015,778.92z"/>
			<path style="fill:#FFFFFF;" d="M393.856,773.025c-0.041,0.06-0.652,0.926-1.135,2.254c-0.361,0.994-0.346,2.443-0.346,2.459
				v0.004c0,0.34,0.019,0.676,0.057,1.01c0,0.008,0,0.014,0.002,0.017c0.004,0.043,0.012,0.084,0.016,0.127
				c0.029,0.232,0.068,0.467,0.118,0.703c0.7,0.178,4.878,1.152,9.548,0.502c2.928-0.408,5.15-1.273,6.5-1.928
				c1.121-0.543,1.842-1.035,2.119-1.238c-0.277-1.027-1.041-2.641-1.742-3.646c-2.006-2.865-4.168-3.6-5.277-3.783
				c-0.424-0.068-0.764-0.109-1.244-0.109c-0.447,0-1.002,0.037-1.742,0.115c-0.744,0.076-1.572,0.271-2.533,0.596
				c-1.348,0.451-2.566,1.158-3.526,2.047l-0.032,0.031C394.495,772.316,394.198,772.592,393.856,773.025z M406.126,772.359
				c0.961,0,1.744,0.781,1.744,1.742c0,0.963-0.783,1.744-1.744,1.744c-0.961,0-1.742-0.781-1.742-1.744
				C404.384,773.141,405.165,772.359,406.126,772.359z M397.885,772.289c1.557,0,2.817,1.262,2.817,2.818
				c0,1.555-1.261,2.814-2.817,2.814c-1.555,0-2.816-1.26-2.816-2.814C395.069,773.551,396.33,772.289,397.885,772.289z"/>
		</g>
	</g>
	<g>
		<g>
			<path style="fill:#5A4535;" d="M387.889,230.47c0.389-0.021,0.777-0.044,1.166-0.063
				C388.666,230.426,388.278,230.449,387.889,230.47z"/>
			<path style="fill:#5A4535;" d="M405.536,230.206c0.923,0.023,1.84,0.066,2.76,0.1
				C407.376,230.273,406.459,230.229,405.536,230.206z"/>
			<path style="fill:#5A4535;" d="M393.859,230.225c0.351-0.01,0.704-0.017,1.056-0.024
				C394.563,230.208,394.21,230.215,393.859,230.225z"/>
			<path style="fill:#5A4535;" d="M382.757,230.802c0.324-0.025,0.65-0.044,0.975-0.068
				C383.407,230.757,383.081,230.777,382.757,230.802z"/>
			<path style="fill:#5A4535;" d="M426.884,231.768c1.689,0.206,3.372,0.431,5.049,0.675
				C430.255,232.199,428.573,231.973,426.884,231.768z"/>
			<path style="fill:#5A4535;" d="M410.984,230.409c1.243,0.061,2.48,0.144,3.718,0.226
				C413.465,230.553,412.227,230.47,410.984,230.409z"/>
			<path style="fill:#5A4535;" d="M421.648,231.193c1.594,0.156,3.183,0.331,4.767,0.521
				C424.831,231.525,423.243,231.348,421.648,231.193z"/>
			<path style="fill:#5A4535;" d="M416.353,230.739c1.45,0.107,2.894,0.234,4.336,0.369
				C419.247,230.974,417.804,230.845,416.353,230.739z"/>
			<path style="fill:#5A4535;" d="M353.33,235.093c1.581-0.34,3.168-0.662,4.761-0.969
				C356.498,234.43,354.911,234.753,353.33,235.093z"/>
			<path style="fill:#5A4535;" d="M376.594,231.37c0.585-0.062,1.17-0.12,1.756-0.177
				C377.764,231.251,377.179,231.309,376.594,231.37z"/>
			<path style="fill:#5A4535;" d="M498.645,648.648c-1.342,0.672-2.689,1.33-4.045,1.975
				C495.957,649.979,497.304,649.319,498.645,648.648z"/>
			<path style="fill:#5A4535;" d="M493.864,650.967c-1.208,0.57-2.42,1.133-3.641,1.68
				C491.444,652.1,492.656,651.535,493.864,650.967z"/>
			<path style="fill:#5A4535;" d="M305.405,650.626c-1.359-0.646-2.71-1.307-4.053-1.98
				C302.696,649.318,304.045,649.981,305.405,650.626z"/>
			<path style="fill:#5A4535;" d="M370.473,232.106c0.677-0.091,1.354-0.184,2.034-0.269
				C371.827,231.922,371.15,232.015,370.473,232.106z"/>
			<path style="fill:#5A4535;" d="M364.5,232.99c1.144-0.186,2.29-0.362,3.44-0.529C366.79,232.627,365.644,232.805,364.5,232.99z"
				/>
			<path style="fill:#5A4535;" d="M359.545,233.846c0.886-0.165,1.774-0.323,2.664-0.477
				C361.318,233.523,360.431,233.682,359.545,233.846z"/>
			<path style="fill:#5A4535;" d="M309.78,652.648c-1.229-0.552-2.449-1.118-3.667-1.691
				C307.331,651.529,308.551,652.098,309.78,652.648z"/>
			<path style="fill:#5A4535;" d="M396.331,316.733c-6.655,0-12.049,5.394-12.049,12.049c0,6.654,5.395,12.048,12.049,12.048
				c6.654,0,12.049-5.394,12.049-12.048C408.38,322.127,402.985,316.733,396.331,316.733z"/>
			<path style="fill:#5A4535;" d="M396.015,475.479c26.456,0,47.902-21.446,47.902-47.901s-21.446-47.901-47.902-47.901
				c-26.454,0-47.901,21.446-47.901,47.901S369.56,475.479,396.015,475.479z M396.015,382.088c25.085,0,45.491,20.406,45.491,45.491
				c0,25.084-20.406,45.491-45.491,45.491c-25.084,0-45.491-20.407-45.491-45.491C350.524,402.494,370.931,382.088,396.015,382.088z
				"/>
			<path style="fill:#5A4535;" d="M396.015,467.115c21.836,0,39.537-17.7,39.537-39.536s-17.701-39.538-39.537-39.538
				c-21.835,0-39.537,17.702-39.537,39.538S374.18,467.115,396.015,467.115z M396.015,390.436c20.481,0,37.142,16.662,37.142,37.143
				c0,20.481-16.661,37.142-37.142,37.142c-20.48,0-37.142-16.66-37.142-37.142C358.873,407.099,375.535,390.436,396.015,390.436z"
				/>
			<path style="fill:#5A4535;" d="M396.331,310.662c-9.992,0-18.121,8.128-18.121,18.121c0,9.991,8.129,18.12,18.121,18.12
				c9.993,0,18.121-8.129,18.121-18.12C414.452,318.79,406.324,310.662,396.331,310.662z M396.331,345.384
				c-9.155,0-16.603-7.448-16.603-16.602c0-9.155,7.448-16.603,16.603-16.603c9.154,0,16.603,7.448,16.603,16.603
				C412.934,337.936,405.485,345.384,396.331,345.384z"/>
			<path style="fill:#5A4535;" d="M269.689,625.301l-1.751,2.746c10.403,7.772,21.521,14.638,33.227,20.506
				c-1.412-0.709-2.816-1.432-4.212-2.17h206.095c-1.394,0.737-2.798,1.46-4.209,2.169c11.704-5.867,22.822-12.733,33.226-20.505
				l-1.753-2.746H269.689z"/>
			<path style="fill:#5A4535;" d="M314.352,654.64c-1.085-0.457-2.162-0.933-3.238-1.407c27.198,11.971,57.262,18.632,88.886,18.632
				c31.615,0,61.671-6.656,88.863-18.622c-1.069,0.471-2.137,0.943-3.216,1.397H314.352z"/>
			<path style="fill:#5A4535;" d="M259.307,621.239c-0.95-0.786-1.894-1.582-2.831-2.385c-0.446-0.38-0.893-0.76-1.335-1.144
				c-0.137-0.12-0.277-0.236-0.415-0.356l0.005-0.008c-2.544-2.224-5.045-4.494-7.484-6.831
				c6.523,6.249,13.427,12.104,20.677,17.521c-2.577-1.926-5.104-3.915-7.591-5.951
				C259.989,621.807,259.648,621.523,259.307,621.239z"/>
			
				<ellipse transform="matrix(0.0293 -0.9996 0.9996 0.0293 -42.9946 810.8836)" style="fill:#5A4535;" cx="396.015" cy="427.579" rx="26.137" ry="26.136"/>
			<path style="fill:#5A4535;" d="M620.864,451c0-111.085-82.014-203.002-188.791-218.538c3.474,0.507,6.922,1.094,10.342,1.759
				c-0.254,14.2-11.836,25.634-26.097,25.634c-2.213,0-4.36-0.278-6.412-0.796c-0.438,1.474-1.047,2.872-1.797,4.18
				c-3.705-0.592-7.678-0.973-11.778-0.973c-7.821,0-15.182,1.381-21.092,2.982c-2.463-3.289-3.922-7.374-3.922-11.799
				c-11.306,0-21-6.891-25.116-16.701c1.978-0.495,3.967-0.96,5.966-1.402C253.186,257.203,179.136,345.447,179.136,451
				c0,62.705,26.135,119.304,68.102,159.507l45.596-55c-1.154-1.564-1.992-3.376-2.404-5.35h11.096v22.562l-7.857,14.986h57.882
				c-2.387-0.586-4.836-1.155-7.337-1.701v-1.547v-68.455v-1.518h7.337v1.518v70.149v1.554h2.53v-0.923v-70.78v-1.518h7.337v1.518
				v71.703v1.044v1.569v5.642h-73.016l-13.447,21.083h250.09l-13.447-21.083h-82.883v-2.663v-1.588v-4.005v-71.703v-1.518h7.338
				v1.518v71.703h2.528v-71.703v-1.518h7.338v1.518v70.78v0.923h2.529v-1.554v-70.149v-1.518h7.338v1.518v68.455v1.547
				c-2.501,0.546-4.949,1.115-7.338,1.701h57.883l-7.858-14.988l0.001-22.56h11.097c-0.412,1.974-1.25,3.785-2.404,5.35
				l45.597,54.999c-2.442,2.34-4.946,4.615-7.495,6.841l0.006,0.008c-0.134,0.117-0.271,0.231-0.406,0.348
				c-0.449,0.391-0.903,0.776-1.356,1.163c-0.931,0.797-1.869,1.588-2.813,2.37c-0.346,0.285-0.688,0.571-1.035,0.854
				c-2.488,2.037-5.017,4.026-7.597,5.954C585.969,587.771,620.864,523.46,620.864,451z M396.331,264.394
				c17.932,0,33.681,7.59,33.681,7.59l-11.95,48.069c-3.47-8.607-11.895-14.705-21.73-14.705c-9.835,0-18.261,6.097-21.731,14.705
				l-11.95-48.069C362.65,271.984,378.399,264.394,396.331,264.394z M418.247,328.782c0,12.104-9.813,21.915-21.916,21.915
				c-12.104,0-21.917-9.811-21.917-21.915s9.813-21.915,21.917-21.915C408.435,306.867,418.247,316.678,418.247,328.782z
				 M374.81,360.359c-0.244-0.437-0.395-0.934-0.395-1.47c0-1.677,1.359-3.036,3.037-3.036c-1.677,0-3.037-1.359-3.037-3.036
				c0-1.677,1.359-3.036,3.037-3.036c-1.677,0-3.037-1.359-3.037-3.036c0-1.677,1.359-3.036,3.037-3.036
				c-1.677,0-3.037-1.359-3.037-3.036c0-0.746,0.28-1.421,0.727-1.949c3.749,7.958,11.825,13.492,21.189,13.492
				c9.364,0,17.44-5.534,21.189-13.492c0.446,0.528,0.727,1.203,0.727,1.949c0,1.677-1.359,3.036-3.036,3.036
				c1.677,0,3.036,1.359,3.036,3.036c0,1.677-1.359,3.036-3.036,3.036c1.677,0,3.036,1.359,3.036,3.036
				c0,1.676-1.359,3.036-3.036,3.036c1.677,0,3.036,1.359,3.036,3.036c0,0.536-0.151,1.033-0.395,1.47l55.453,11.609l-5.123,4.807
				h-42.682c-8.135-4.737-17.499-7.585-27.494-7.919v-2.738c0-1.101-0.892-1.992-1.992-1.992c-1.1,0-1.992,0.891-1.992,1.992v2.738
				c-9.995,0.335-19.359,3.182-27.492,7.919h-42.051l-5.123-4.807L374.81,360.359z M341.791,398.572l2.373,1.369
				c-4.412,8.244-6.923,17.651-6.923,27.638c0,9.985,2.51,19.393,6.922,27.636l-2.372,1.369c-0.955,0.548-1.281,1.768-0.729,2.722
				c0.55,0.95,1.767,1.277,2.72,0.729l2.382-1.376c1.255,2.006,2.629,3.93,4.109,5.765l-25.793-6.357v-78.937h38.348
				c-6.671,4.583-12.36,10.495-16.662,17.368l-2.382-1.375c-0.954-0.551-2.17-0.224-2.722,0.729
				C340.513,396.804,340.838,398.022,341.791,398.572z M339.771,427.579c0-31.063,25.181-56.244,56.244-56.244
				c31.063,0,56.243,25.182,56.243,56.244s-25.18,56.243-56.243,56.243C364.953,483.822,339.771,458.642,339.771,427.579z
				 M445.866,458.659l2.38,1.375c0.953,0.552,2.17,0.226,2.721-0.729c0.548-0.952,0.225-2.17-0.73-2.721l-2.37-1.368
				c4.413-8.243,6.923-17.652,6.923-27.638c0-9.986-2.51-19.395-6.922-27.639l2.369-1.368c0.956-0.548,1.28-1.768,0.728-2.722
				c-0.548-0.949-1.765-1.278-2.719-0.726l-2.38,1.375c-4.302-6.875-9.991-12.787-16.663-17.369h38.979v78.937l-26.592,6.553
				C443.132,462.727,444.564,460.737,445.866,458.659z M301.525,548.639h-27.52v-34.154h27.52V548.639z M312.083,516.002v63.566
				v1.522c-2.428-0.206-4.872-0.379-7.337-0.504v-66.103h7.337V516.002z M321.95,516.002v64.605v1.531
				c-2.418-0.31-4.867-0.581-7.337-0.818v-1.527v-63.791v-1.518h7.337V516.002z M331.817,516.002v66.067v1.537
				c-2.412-0.407-4.858-0.785-7.337-1.129v-1.53v-64.945v-1.518h7.337V516.002z M341.684,516.002v67.92v1.545
				c-2.4-0.499-4.849-0.974-7.337-1.42v-1.537v-66.508v-1.518h7.337V516.002z M291.875,511.264c0.025-1.282,0.87-2.392,2.12-2.771
				l1.207-0.366v-21.835c0-1.512,1.229-2.741,2.741-2.741h44.343c1.511,0,2.741,1.229,2.741,2.741v21.835l1.208,0.366
				c1.249,0.379,2.095,1.488,2.12,2.771H291.875z M371.285,516.002v71.703v4.005v1.588v2.663h-7.337v-4.911v-1.576v-1.768v-71.703
				v-1.518h7.337V516.002z M381.152,516.002v79.041v1.61c-0.635-0.229-1.286-0.459-1.946-0.692h-5.392v-1.84v-1.593v-4.823v-71.703
				v-1.518h7.337V516.002z M391.019,516.002v82.773v1.635c-2.138-0.863-4.587-1.818-7.337-2.835v-1.614h0v-8.256h0v-71.703v-1.518
				h7.337V516.002z M398.482,603.572c-1.192-0.535-2.853-1.262-4.934-2.129v-1.64v-3.843h0v-8.256h0v-71.703v-1.518h4.934V603.572z
				 M406.452,595.961L406.452,595.961l-0.001,3.843v1.64c-2.081,0.867-3.741,1.594-4.933,2.129v-7.611v-8.256v-73.221h4.933v1.518
				v71.703h0.001V595.961z M416.318,516.002v71.703v8.256v1.614c-2.749,1.017-5.199,1.972-7.338,2.835v-1.635v-82.773v-1.518h7.338
				V516.002z M426.185,516.002v76.526v1.593h-0.001v1.84h-5.391c-0.66,0.233-1.31,0.464-1.946,0.692v-1.61v-79.041v-1.518h7.338
				V516.002z M448.43,511.264h-96.858c-0.021-2.319-1.313-4.373-3.324-5.415v-19.557c0-3.287-2.674-5.961-5.961-5.961h-7.94v-8.352
				h-13.425v8.352h-3.226v-8.352h-12.507v-4.806h29.158v-2.276h16.332c10.392,12.603,25.91,20.819,43.344,21.404l0.001,2.737
				c-0.003,1.103,0.889,1.993,1.992,1.993c1.097-0.002,1.989-0.891,1.989-1.993v-2.737c17.438-0.584,32.956-8.802,43.35-21.404h24.3
				v2.276h29.158v4.806h-12.507v8.352h-3.227v-8.352h-13.425v8.352h-7.939c-3.287,0-5.961,2.674-5.961,5.961v19.557
				C449.74,506.891,448.451,508.944,448.43,511.264z M465.653,516.002v66.508v1.537c-2.487,0.446-4.936,0.921-7.338,1.42v-1.545
				v-67.92v-1.518h7.338V516.002z M475.52,516.002v64.945v1.53c-2.478,0.344-4.925,0.722-7.338,1.129v-1.537v-66.067v-1.518h7.338
				V516.002z M485.388,516.002v63.791v1.527c-2.47,0.237-4.919,0.509-7.339,0.818v-1.531v-64.605v-1.518h7.339V516.002z
				 M495.254,580.587c-2.465,0.125-4.909,0.298-7.338,0.504v-1.522v-63.566v-1.518h7.338V580.587z M451.645,511.264
				c0.025-1.282,0.87-2.392,2.12-2.771l1.208-0.366v-21.835c0-1.512,1.229-2.741,2.741-2.741h44.342
				c1.512,0,2.741,1.229,2.741,2.741v21.835l1.208,0.366c1.249,0.379,2.095,1.488,2.119,2.771H451.645z M525.994,548.639h-27.52
				v-34.154h27.52V548.639z"/>
			<path style="fill:#FFFFFF;" d="M396.331,312.18c-9.155,0-16.603,7.448-16.603,16.603c0,9.154,7.448,16.602,16.603,16.602
				c9.154,0,16.603-7.448,16.603-16.602C412.934,319.627,405.485,312.18,396.331,312.18z M396.331,340.831
				c-6.655,0-12.049-5.394-12.049-12.048c0-6.655,5.395-12.049,12.049-12.049c6.654,0,12.049,5.394,12.049,12.049
				C408.38,335.436,402.985,340.831,396.331,340.831z"/>
			<path style="fill:#FFFFFF;" d="M396.331,306.867c-12.104,0-21.917,9.811-21.917,21.915s9.813,21.915,21.917,21.915
				c12.104,0,21.916-9.811,21.916-21.915S408.435,306.867,396.331,306.867z M396.331,346.902c-9.992,0-18.121-8.129-18.121-18.12
				c0-9.992,8.129-18.121,18.121-18.121c9.993,0,18.121,8.128,18.121,18.121C414.452,338.773,406.324,346.902,396.331,346.902z"/>
			<path style="fill:#FFFFFF;" d="M351.551,516.002v-1.518h-7.337v1.518v68.455v1.547c2.5,0.546,4.95,1.115,7.337,1.701v-1.554
				V516.002z"/>
			<path style="fill:#FFFFFF;" d="M314.613,516.002v63.791v1.527c2.47,0.237,4.918,0.509,7.337,0.818v-1.531v-64.605v-1.518h-7.337
				V516.002z"/>
			<path style="fill:#FFFFFF;" d="M324.479,516.002v64.945v1.53c2.48,0.344,4.926,0.722,7.337,1.129v-1.537v-66.067v-1.518h-7.337
				V516.002z"/>
			<path style="fill:#FFFFFF;" d="M334.347,516.002v66.508v1.537c2.488,0.446,4.937,0.921,7.337,1.42v-1.545v-67.92v-1.518h-7.337
				V516.002z"/>
			<path style="fill:#FFFFFF;" d="M304.746,580.587c2.465,0.125,4.91,0.298,7.337,0.504v-1.522v-63.566v-1.518h-7.337V580.587z"/>
			<polygon style="fill:#FFFFFF;" points="363.948,516.002 363.948,587.705 363.948,589.474 363.948,591.05 363.948,595.961 
				371.285,595.961 371.285,593.298 371.285,591.71 371.285,587.705 371.285,516.002 371.285,514.484 363.948,514.484 			"/>
			<path style="fill:#FFFFFF;" d="M393.548,516.002v71.703h0v8.256h0v3.843v1.64c2.081,0.867,3.742,1.594,4.934,2.129v-89.088
				h-4.934V516.002z"/>
			<path style="fill:#FFFFFF;" d="M383.682,516.002v71.703h0v8.256h0v1.614c2.75,1.017,5.199,1.972,7.337,2.835v-1.635v-82.773
				v-1.518h-7.337V516.002z"/>
			<path style="fill:#FFFFFF;" d="M373.814,516.002v71.703v4.823v1.593v1.84h5.392c0.66,0.233,1.311,0.464,1.946,0.692v-1.61
				v-79.041v-1.518h-7.337V516.002z"/>
			<path style="fill:#FFFFFF;" d="M455.786,584.457v-68.455v-1.518h-7.338v1.518v70.149v1.554c2.389-0.586,4.837-1.155,7.338-1.701
				V584.457z"/>
			<path style="fill:#FFFFFF;" d="M478.049,516.002v64.605v1.531c2.42-0.31,4.869-0.581,7.339-0.818v-1.527v-63.791v-1.518h-7.339
				V516.002z"/>
			<path style="fill:#FFFFFF;" d="M468.183,516.002v66.067v1.537c2.413-0.407,4.859-0.785,7.338-1.129v-1.53v-64.945v-1.518h-7.338
				V516.002z"/>
			<path style="fill:#FFFFFF;" d="M458.315,516.002v67.92v1.545c2.401-0.499,4.851-0.974,7.338-1.42v-1.537v-66.508v-1.518h-7.338
				V516.002z"/>
			<path style="fill:#FFFFFF;" d="M487.916,516.002v63.566v1.522c2.429-0.206,4.873-0.379,7.338-0.504v-66.103h-7.338V516.002z"/>
			<path style="fill:#FFFFFF;" d="M406.451,516.002v-1.518h-4.933v73.221v8.256v7.611c1.191-0.535,2.852-1.262,4.933-2.129v-1.64
				v-3.843h0.001v-8.256h-0.001V516.002z"/>
			<path style="fill:#FFFFFF;" d="M408.98,516.002v82.773v1.635c2.139-0.863,4.589-1.818,7.338-2.835v-1.614v-8.256v-71.703v-1.518
				h-7.338V516.002z"/>
			<path style="fill:#FFFFFF;" d="M418.848,516.002v79.041v1.61c0.636-0.229,1.286-0.459,1.946-0.692h5.391v-1.84h0.001v-1.593
				v-76.526v-1.518h-7.338V516.002z"/>
			<rect x="498.474" y="514.484" style="fill:#FFFFFF;" width="27.521" height="34.154"/>
			<rect x="274.006" y="514.484" style="fill:#FFFFFF;" width="27.519" height="34.154"/>
			<path style="fill:#FFFFFF;" d="M396.015,464.721c20.481,0,37.142-16.66,37.142-37.142c0-20.48-16.661-37.143-37.142-37.143
				c-20.48,0-37.142,16.662-37.142,37.143C358.873,448.06,375.535,464.721,396.015,464.721z M396.015,401.442
				c14.436,0,26.136,11.701,26.136,26.137c0,14.435-11.7,26.137-26.136,26.137c-14.435,0-26.136-11.701-26.136-26.137
				C369.879,413.144,381.58,401.442,396.015,401.442z"/>
			<path style="fill:#FFFFFF;" d="M366.531,376.775c8.133-4.737,17.497-7.585,27.492-7.919v-2.738c0-1.101,0.892-1.992,1.992-1.992
				c1.1,0,1.992,0.891,1.992,1.992v2.738c9.995,0.335,19.359,3.182,27.494,7.919h42.682l5.123-4.807l-55.453-11.609
				c0.243-0.437,0.395-0.934,0.395-1.47c0-1.677-1.359-3.036-3.036-3.036c1.677,0,3.036-1.359,3.036-3.036
				c0-1.677-1.359-3.036-3.036-3.036c1.677,0,3.036-1.359,3.036-3.036c0-1.677-1.359-3.036-3.036-3.036
				c1.677,0,3.036-1.359,3.036-3.036c0-0.746-0.28-1.421-0.727-1.949c-3.749,7.958-11.825,13.492-21.189,13.492
				c-9.364,0-17.44-5.534-21.189-13.492c-0.447,0.528-0.727,1.203-0.727,1.949c0,1.677,1.359,3.036,3.037,3.036
				c-1.677,0-3.037,1.359-3.037,3.036c0,1.677,1.359,3.036,3.037,3.036c-1.677,0-3.037,1.359-3.037,3.036
				c0,1.676,1.359,3.036,3.037,3.036c-1.677,0-3.037,1.359-3.037,3.036c0,0.536,0.151,1.033,0.395,1.47l-55.453,11.609l5.123,4.807
				H366.531z"/>
			<path style="fill:#FFFFFF;" d="M343.784,395.122l2.382,1.375c4.301-6.874,9.991-12.786,16.662-17.368h-38.348v78.937
				l25.793,6.357c-1.48-1.835-2.853-3.759-4.109-5.765l-2.382,1.376c-0.953,0.549-2.17,0.222-2.72-0.729
				c-0.552-0.954-0.226-2.174,0.729-2.722l2.372-1.369c-4.412-8.243-6.922-17.65-6.922-27.636c0-9.986,2.511-19.394,6.923-27.638
				l-2.373-1.369c-0.953-0.55-1.278-1.768-0.729-2.721C341.613,394.898,342.83,394.571,343.784,395.122z"/>
			<path style="fill:#FFFFFF;" d="M468.183,379.129h-38.979c6.672,4.583,12.361,10.495,16.663,17.369l2.38-1.375
				c0.954-0.552,2.171-0.223,2.719,0.726c0.552,0.955,0.228,2.174-0.728,2.722l-2.369,1.368c4.412,8.245,6.922,17.653,6.922,27.639
				c0,9.985-2.51,19.395-6.923,27.638l2.37,1.368c0.955,0.551,1.278,1.768,0.73,2.721c-0.551,0.954-1.768,1.28-2.721,0.729
				l-2.38-1.375c-1.302,2.078-2.734,4.067-4.275,5.96l26.592-6.553V379.129z"/>
			<path style="fill:#FFFFFF;" d="M296.952,646.383c1.395,0.738,2.799,1.461,4.212,2.17c0.063,0.031,0.125,0.063,0.188,0.093
				c1.343,0.674,2.694,1.334,4.053,1.98c0.235,0.112,0.473,0.22,0.708,0.331c1.217,0.573,2.438,1.14,3.667,1.691
				c0.442,0.198,0.89,0.388,1.334,0.584c1.076,0.475,2.152,0.95,3.238,1.407h171.295c1.079-0.454,2.146-0.927,3.216-1.397
				c0.453-0.2,0.909-0.393,1.36-0.596c1.221-0.547,2.433-1.109,3.641-1.68c0.245-0.115,0.491-0.227,0.736-0.344
				c1.355-0.646,2.703-1.304,4.045-1.975c0.064-0.031,0.128-0.064,0.192-0.096c1.411-0.709,2.815-1.432,4.209-2.169H296.952z"/>
			<path style="fill:#FFFFFF;" d="M540.699,621.235c0.943-0.782,1.882-1.573,2.813-2.37c0.452-0.387,0.906-0.772,1.356-1.163
				c0.135-0.117,0.272-0.23,0.406-0.348l-0.006-0.008c2.549-2.226,5.053-4.501,7.495-6.841l-45.597-54.999
				c1.154-1.564,1.992-3.376,2.404-5.35h-11.097l-0.001,22.56l7.858,14.988h-57.883h-2.529v-0.923v-70.78v-1.518h-7.338v1.518
				v71.703h-2.528v-71.703v-1.518h-7.338v1.518v71.703v4.005v1.588v2.663h82.883l13.447,21.083h-250.09l13.447-21.083h73.016v-5.642
				v-1.569v-1.044v-71.703v-1.518h-7.337v1.518v70.78v0.923h-2.53h-57.882l7.857-14.986v-22.562H290.43
				c0.413,1.974,1.251,3.785,2.404,5.35l-45.596,55h-0.001c0.003,0.003,0.007,0.006,0.01,0.009c2.439,2.337,4.94,4.607,7.484,6.831
				l-0.005,0.008c0.137,0.119,0.277,0.235,0.415,0.356c0.442,0.385,0.89,0.765,1.335,1.144c0.936,0.803,1.88,1.599,2.831,2.385
				c0.341,0.283,0.682,0.567,1.025,0.847c2.487,2.036,5.014,4.025,7.591,5.951c0.004,0.004,0.009,0.007,0.013,0.01h0.001
				l1.751-2.746H530.31l1.753,2.746l0,0c0.001,0,0.003-0.002,0.004-0.003c2.58-1.928,5.108-3.917,7.597-5.954
				C540.011,621.807,540.354,621.521,540.699,621.235z"/>
			<path style="fill:#FFFFFF;" d="M396.015,483.822c31.063,0,56.243-25.181,56.243-56.243s-25.18-56.244-56.243-56.244
				c-31.063,0-56.244,25.182-56.244,56.244S364.953,483.822,396.015,483.822z M396.015,379.677
				c26.456,0,47.902,21.446,47.902,47.901s-21.446,47.901-47.902,47.901c-26.454,0-47.901-21.446-47.901-47.901
				S369.56,379.677,396.015,379.677z"/>
			<path style="fill:#FFFFFF;" d="M396.015,473.07c25.085,0,45.491-20.407,45.491-45.491c0-25.085-20.406-45.491-45.491-45.491
				c-25.084,0-45.491,20.406-45.491,45.491C350.524,452.663,370.931,473.07,396.015,473.07z M396.015,388.042
				c21.836,0,39.537,17.702,39.537,39.538s-17.701,39.536-39.537,39.536c-21.835,0-39.537-17.7-39.537-39.536
				S374.18,388.042,396.015,388.042z"/>
			<path style="fill:#FFFFFF;" d="M506.005,508.493l-1.208-0.366v-21.835c0-1.512-1.229-2.741-2.741-2.741h-44.342
				c-1.512,0-2.741,1.229-2.741,2.741v21.835l-1.208,0.366c-1.25,0.379-2.095,1.488-2.12,2.771h56.479
				C508.1,509.981,507.254,508.872,506.005,508.493z"/>
			<path style="fill:#FFFFFF;" d="M346.235,508.493l-1.208-0.366v-21.835c0-1.512-1.229-2.741-2.741-2.741h-44.343
				c-1.511,0-2.741,1.229-2.741,2.741v21.835l-1.207,0.366c-1.25,0.379-2.095,1.488-2.12,2.771h56.48
				C348.33,509.981,347.484,508.872,346.235,508.493z"/>
			<path style="fill:#FFFFFF;" d="M451.753,486.292c0-3.287,2.674-5.961,5.961-5.961h7.939v-8.352h13.425v8.352h3.227v-8.352h12.507
				v-4.806h-29.158v-2.276h-24.3c-10.393,12.603-25.912,20.82-43.35,21.404v2.737c0,1.103-0.892,1.991-1.989,1.993
				c-1.103,0-1.995-0.891-1.992-1.993l-0.001-2.737c-17.434-0.585-32.952-8.802-43.344-21.404h-16.332v2.276h-29.158v4.806h12.507
				v8.352h3.226v-8.352h13.425v8.352h7.94c3.287,0,5.961,2.674,5.961,5.961v19.557c2.012,1.042,3.303,3.096,3.324,5.415h96.858
				c0.022-2.319,1.311-4.373,3.323-5.415V486.292z"/>
			<path style="fill:#FFFFFF;" d="M396.331,305.349c9.836,0,18.261,6.097,21.73,14.705l11.95-48.069c0,0-15.749-7.59-33.681-7.59
				c-17.932,0-33.681,7.59-33.681,7.59l11.95,48.069C378.07,311.446,386.496,305.349,396.331,305.349z"/>
			<path style="fill:#FFFFFF;" d="M371.316,253.449c0,4.426,1.459,8.51,3.922,11.799c5.91-1.601,13.271-2.982,21.092-2.982
				c4.1,0,8.073,0.381,11.778,0.973c0.75-1.308,1.359-2.706,1.797-4.18c2.052,0.518,4.199,0.796,6.412,0.796
				c14.261,0,25.843-11.434,26.097-25.634c-3.42-0.666-6.868-1.252-10.342-1.759c-0.047-0.007-0.095-0.013-0.141-0.02
				c-1.677-0.244-3.36-0.469-5.049-0.675c-0.155-0.019-0.313-0.035-0.469-0.054c-1.584-0.189-3.173-0.365-4.767-0.521
				c-0.318-0.031-0.64-0.055-0.959-0.085c-1.442-0.135-2.886-0.262-4.336-0.369c-0.549-0.04-1.101-0.068-1.651-0.104
				c-1.237-0.082-2.475-0.165-3.718-0.226c-0.893-0.044-1.792-0.068-2.688-0.102c-0.92-0.035-1.837-0.078-2.76-0.1
				c-1.84-0.046-3.685-0.07-5.536-0.07c-1.7,0-3.395,0.026-5.085,0.064c-0.352,0.008-0.705,0.015-1.056,0.024
				c-1.606,0.044-3.207,0.105-4.804,0.183c-0.389,0.019-0.777,0.042-1.166,0.063c-1.389,0.076-2.775,0.163-4.158,0.264
				c-0.325,0.024-0.65,0.043-0.975,0.068c-1.474,0.114-2.941,0.248-4.407,0.391c-0.586,0.057-1.171,0.115-1.756,0.177
				c-1.366,0.145-2.729,0.298-4.088,0.467c-0.679,0.085-1.356,0.177-2.034,0.269c-0.846,0.113-1.69,0.231-2.533,0.354
				c-1.15,0.167-2.296,0.344-3.44,0.529c-0.765,0.124-1.529,0.248-2.292,0.379c-0.89,0.154-1.778,0.312-2.664,0.477
				c-0.485,0.09-0.969,0.186-1.454,0.278c-1.593,0.307-3.181,0.628-4.761,0.969c-0.388,0.083-0.776,0.167-1.164,0.253
				c-1.999,0.441-3.988,0.907-5.966,1.402C350.316,246.559,360.011,253.449,371.316,253.449z"/>
		</g>
		<g>
			<rect x="170.602" y="55.111" style="fill:none;" width="458.796" height="77.494"/>
			
				<text transform="matrix(1 0 0 1 225.4805 128.7534)" style="fill:#FFFFFF; font-family:'Overpass-Bold'; font-size:102px; letter-spacing:10;">TRAIN</text>
			<rect x="192" y="142.5" style="fill:none;" width="416" height="30.5"/>
			
				<text transform="matrix(1 0 0 1 232.5679 169.2134)" style="fill:#FFFFFF; font-family:'Overpass-Bold'; font-size:37px; letter-spacing:3;">VECTOR DESIGN</text>
		</g>
	</g>
</g>
</svg>
